<?xml version="1.0" encoding="UTF-8"?>
<svg id="_Слой_1" data-name="Слой 1" xmlns="http://www.w3.org/2000/svg" viewBox="0 0 898.04 124.67">
  <path d="m0,114.28c0-4.31.08-8.35.23-12.12.15-3.77.27-7.65.35-11.66.08-4,.19-8.27.35-12.81.15-4.54.23-9.66.23-15.35,0-4.92-.04-9.47-.12-13.62-.08-4.16-.19-8.2-.35-12.12-.16-3.92-.31-7.81-.46-11.66-.16-3.85-.23-7.93-.23-12.24,0-2.77.88-4.96,2.66-6.58,1.77-1.62,3.96-2.34,6.58-2.19,1.85.15,3.5.31,4.96.46,1.46.16,3.27.23,5.43.23,5.23,0,9.81-.23,13.74-.69,3.92-.46,7.54-1,10.85-1.62,3.31-.61,6.5-1.15,9.58-1.62,3.08-.46,6.31-.69,9.7-.69,9.23,0,17.66,1.5,25.28,4.5,7.62,3,14.2,7.27,19.74,12.81,5.54,5.54,9.81,12.12,12.81,19.74,3,7.62,4.5,16.04,4.5,25.28,0,5.7.08,10.81.23,15.35.15,4.54.27,8.81.35,12.81.08,4,.19,7.89.35,11.66.15,3.77.23,7.81.23,12.12,0,1.39-.62,2.62-1.85,3.69-1.23,1.08-2.77,1.93-4.62,2.54-1.85.61-3.77,1.07-5.77,1.38-2,.31-3.69.46-5.08.46s-3.08-.16-5.08-.46c-2-.31-3.92-.77-5.77-1.38-1.85-.61-3.39-1.46-4.62-2.54-1.23-1.08-1.85-2.31-1.85-3.69,0-4.31.08-8.35.23-12.12.15-3.77.27-7.65.35-11.66.08-4,.19-8.27.35-12.81.15-4.54.23-9.66.23-15.35,0-12.77-2.39-21.74-7.16-26.9-4.77-5.15-12.39-7.73-22.86-7.73s-18.09,2.58-22.86,7.73c-4.77,5.16-7.16,14.12-7.16,26.9,0,5.7.08,10.81.23,15.35.15,4.54.27,8.81.35,12.81.08,4,.19,7.89.35,11.66.15,3.77.23,7.81.23,12.12,0,1.39-.62,2.62-1.85,3.69-1.23,1.08-2.77,1.93-4.62,2.54-1.85.61-3.77,1.07-5.77,1.38-2,.31-3.69.46-5.08.46s-3.08-.16-5.08-.46c-2-.31-3.92-.77-5.77-1.38-1.85-.61-3.39-1.46-4.62-2.54-1.23-1.08-1.85-2.31-1.85-3.69Z"/>
  <path d="m143.13,62.33c0-9.23,1.5-17.66,4.5-25.28,3-7.62,7.27-14.2,12.81-19.74s12.12-9.81,19.74-12.81c7.62-3,16.04-4.5,25.28-4.5s17.66,1.5,25.28,4.5c7.62,3,14.2,7.27,19.74,12.81,5.54,5.54,9.81,12.12,12.81,19.74,3,7.62,4.5,16.04,4.5,25.28s-1.5,17.66-4.5,25.28c-3,7.62-7.27,14.2-12.81,19.74-5.54,5.54-12.12,9.81-19.74,12.81-7.62,3-16.04,4.5-25.28,4.5s-17.66-1.5-25.28-4.5c-7.62-3-14.2-7.27-19.74-12.81s-9.81-12.12-12.81-19.74c-3-7.62-4.5-16.04-4.5-25.28Zm30.01,0c0,12.78,2.77,21.74,8.31,26.9,5.54,5.16,13.54,7.73,24.01,7.73s18.47-2.58,24.01-7.73c5.54-5.15,8.31-14.12,8.31-26.9s-2.77-21.74-8.31-26.9c-5.54-5.15-13.55-7.73-24.01-7.73s-18.47,2.58-24.01,7.73c-5.54,5.16-8.31,14.12-8.31,26.9Z"/>
  <path d="m354.37,0c3.54,0,6.5.23,8.89.69,2.38.46,4.77,1,7.16,1.62,2.38.62,5,1.15,7.85,1.62,2.85.46,6.42.69,10.73.69,2.15,0,3.96-.08,5.43-.23,1.46-.15,3.12-.31,4.96-.46,2.77-.31,5,.39,6.7,2.08,1.69,1.7,2.46,3.92,2.31,6.69-.16,4.31-.35,8.39-.58,12.24-.23,3.85-.46,7.73-.69,11.66-.23,3.92-.43,7.96-.58,12.12-.15,4.16-.23,8.7-.23,13.62,0,5.7.12,10.81.35,15.35.23,4.54.5,8.81.81,12.81.31,4,.58,7.89.81,11.66.23,3.77.35,7.81.35,12.12,0,1.39-.62,2.62-1.85,3.69-1.23,1.08-2.77,1.93-4.62,2.54-1.85.61-3.77,1.07-5.77,1.38-2,.31-3.69.46-5.08.46s-3.08-.16-5.08-.46c-2-.31-3.92-.77-5.77-1.38-1.85-.61-3.39-1.46-4.62-2.54-1.23-1.08-1.85-2.31-1.85-3.69,0-4.31.08-8.35.23-12.12.15-3.77.27-7.65.35-11.66.08-4,.19-8.27.35-12.81.15-4.54.23-9.66.23-15.35,0-6.31-.12-11.66-.35-16.04-.23-4.39-1-7.96-2.31-10.73-1.31-2.77-3.35-4.77-6.12-6-2.77-1.23-6.77-1.85-12-1.85-6.16,0-11.39,1.62-15.7,4.85-4.31,3.23-7.85,7.39-10.62,12.47-2.77,5.08-4.96,10.85-6.58,17.31-1.62,6.46-2.81,12.89-3.58,19.28-.77,6.39-1.23,12.47-1.39,18.24-.16,5.77-.23,10.58-.23,14.43,0,1.39-.62,2.62-1.85,3.69-1.23,1.08-2.77,1.93-4.62,2.54-1.85.61-3.77,1.07-5.77,1.38-2,.31-3.69.46-5.08.46s-3.08-.16-5.08-.46c-2-.31-3.92-.77-5.77-1.38-1.85-.61-3.39-1.46-4.62-2.54-1.23-1.08-1.85-2.31-1.85-3.69,0-6.77.38-14.27,1.15-22.51.77-8.23,2.15-16.58,4.16-25.05,2-8.46,4.73-16.7,8.2-24.7,3.46-8,7.89-15.12,13.27-21.35,5.39-6.23,11.85-11.23,19.39-15.01,7.54-3.77,16.39-5.66,26.55-5.66Z"/>
  <path d="m431.71,12.7c0-2.77.88-4.96,2.66-6.58,1.77-1.62,3.96-2.34,6.58-2.19,1.85.15,3.5.31,4.96.46,1.46.16,3.27.23,5.43.23,5.23,0,9.5-.23,12.81-.69,3.31-.46,6.27-1,8.89-1.62,2.62-.61,5.15-1.15,7.62-1.62,2.46-.46,5.39-.69,8.77-.69,5.23,0,9.85.54,13.85,1.62,4,1.08,7.5,2.39,10.5,3.92,3,1.54,5.58,3.16,7.73,4.85,2.15,1.7,3.92,3.16,5.31,4.39,2.31,2,4.31,2,6,0,1.23-1.38,2.89-2.92,4.96-4.62,2.08-1.69,4.65-3.31,7.73-4.85,3.08-1.54,6.66-2.81,10.73-3.81,4.08-1,8.73-1.5,13.97-1.5,9.23,0,17.39,1.5,24.47,4.5,7.08,3,12.96,7.27,17.66,12.81,4.69,5.54,8.27,12.12,10.74,19.74,2.46,7.62,3.69,16.04,3.69,25.28,0,5.7.08,10.81.23,15.35.15,4.54.27,8.81.35,12.81.08,4,.19,7.89.35,11.66.15,3.77.23,7.81.23,12.12,0,1.39-.62,2.62-1.85,3.69-1.23,1.08-2.77,1.93-4.62,2.54-1.85.61-3.77,1.07-5.77,1.38-2,.31-3.69.46-5.08.46s-3.08-.16-5.08-.46c-2-.31-3.92-.77-5.77-1.38-1.85-.61-3.39-1.46-4.62-2.54-1.23-1.08-1.85-2.31-1.85-3.69,0-4.31.08-8.35.23-12.12.15-3.77.27-7.65.35-11.66.08-4,.19-8.27.35-12.81.15-4.54.23-9.66.23-15.35,0-6.31-.27-11.66-.81-16.04-.54-4.39-1.7-7.96-3.46-10.73-1.77-2.77-4.23-4.77-7.39-6-3.16-1.23-7.35-1.85-12.58-1.85s-9.43.62-12.58,1.85c-3.16,1.23-5.58,3.23-7.27,6-1.7,2.77-2.85,6.35-3.46,10.73-.62,4.39-.92,9.74-.92,16.04,0,5.7.08,10.81.23,15.35.15,4.54.27,8.81.35,12.81.08,4,.19,7.89.35,11.66.15,3.77.23,7.81.23,12.12,0,1.39-.62,2.62-1.85,3.69-1.23,1.08-2.77,1.93-4.62,2.54-1.85.61-3.77,1.07-5.77,1.38-2,.31-3.69.46-5.08.46s-3.08-.16-5.08-.46c-2-.31-3.92-.77-5.77-1.38s-3.39-1.46-4.62-2.54c-1.23-1.08-1.85-2.31-1.85-3.69,0-4.31.08-8.35.23-12.12.15-3.77.27-7.65.35-11.66.08-4,.19-8.27.35-12.81.15-4.54.23-9.66.23-15.35,0-6.31-.27-11.66-.81-16.04-.54-4.39-1.7-7.96-3.46-10.73-1.77-2.77-4.24-4.77-7.39-6-3.16-1.23-7.35-1.85-12.58-1.85s-9.43.62-12.58,1.85c-3.16,1.23-5.58,3.23-7.27,6-1.7,2.77-2.85,6.35-3.46,10.73-.62,4.39-.92,9.74-.92,16.04,0,5.7.08,10.81.23,15.35.15,4.54.27,8.81.35,12.81.08,4,.19,7.89.35,11.66.15,3.77.23,7.81.23,12.12,0,1.39-.62,2.62-1.85,3.69-1.23,1.08-2.77,1.93-4.62,2.54-1.85.61-3.77,1.07-5.77,1.38-2,.31-3.69.46-5.08.46s-3.08-.16-5.08-.46c-2-.31-3.92-.77-5.77-1.38-1.85-.61-3.39-1.46-4.62-2.54-1.23-1.08-1.85-2.31-1.85-3.69,0-4.31.08-8.35.23-12.12.15-3.77.27-7.65.35-11.66.08-4,.19-8.27.35-12.81.15-4.54.23-9.66.23-15.35,0-4.92-.04-9.47-.12-13.62-.08-4.16-.19-8.2-.35-12.12-.16-3.92-.31-7.81-.46-11.66-.16-3.85-.23-7.93-.23-12.24Z"/>
  <path d="m644.1,62.33c0-9.23,1.5-17.66,4.5-25.28,3-7.62,7.27-14.2,12.81-19.74s12.12-9.81,19.74-12.81c7.62-3,16.04-4.5,25.28-4.5s17.66,1.5,25.28,4.5c7.62,3,14.2,7.27,19.74,12.81,5.54,5.54,9.81,12.12,12.81,19.74,3,7.62,4.5,16.04,4.5,25.28s-1.5,17.66-4.5,25.28c-3,7.62-7.27,14.2-12.81,19.74-5.54,5.54-12.12,9.81-19.74,12.81-7.62,3-16.04,4.5-25.28,4.5s-17.66-1.5-25.28-4.5c-7.62-3-14.2-7.27-19.74-12.81s-9.81-12.12-12.81-19.74c-3-7.62-4.5-16.04-4.5-25.28Zm30.01,0c0,12.78,2.77,21.74,8.31,26.9,5.54,5.16,13.54,7.73,24.01,7.73s18.47-2.58,24.01-7.73c5.54-5.15,8.31-14.12,8.31-26.9s-2.77-21.74-8.31-26.9c-5.54-5.15-13.55-7.73-24.01-7.73s-18.47,2.58-24.01,7.73c-5.54,5.16-8.31,14.12-8.31,26.9Z"/>
  <path d="m782.61,62.33c0-9.23,1.5-17.66,4.5-25.28,3-7.62,7.27-14.2,12.81-19.74s12.12-9.81,19.74-12.81c7.62-3,16.04-4.5,25.28-4.5,8.62,0,16.24.89,22.86,2.65,6.62,1.77,12.16,4.04,16.62,6.81,4.46,2.77,7.85,5.77,10.16,9,2.31,3.23,3.46,6.31,3.46,9.23,0,2-.46,3.92-1.39,5.77-.92,1.85-2.08,3.43-3.46,4.73-1.39,1.31-2.96,2.35-4.73,3.12-1.77.77-3.58,1.15-5.43,1.15-3.23,0-5.93-1.07-8.08-3.23-1.39-1.39-2.93-2.77-4.62-4.16-1.7-1.38-3.69-2.62-6-3.69-2.31-1.07-5.04-1.96-8.2-2.65-3.16-.69-6.89-1.04-11.2-1.04-10.47,0-18.47,2.58-24.01,7.73-5.54,5.16-8.31,14.12-8.31,26.9s2.77,21.74,8.31,26.9c5.54,5.16,13.54,7.73,24.01,7.73,4.31,0,8.04-.35,11.2-1.04,3.15-.69,5.89-1.58,8.2-2.66,2.31-1.07,4.31-2.31,6-3.69,1.69-1.39,3.23-2.77,4.62-4.16,2.15-2.15,4.85-3.23,8.08-3.23,1.85,0,3.65.39,5.43,1.15,1.77.77,3.35,1.81,4.73,3.12,1.39,1.31,2.54,2.85,3.46,4.62.92,1.77,1.39,3.73,1.39,5.89,0,2.93-1.15,6-3.46,9.23-2.31,3.23-5.7,6.23-10.16,9-4.47,2.77-10.01,5.04-16.62,6.81-6.62,1.77-14.24,2.65-22.86,2.65-9.23,0-17.66-1.5-25.28-4.5-7.62-3-14.2-7.27-19.74-12.81s-9.81-12.12-12.81-19.74c-3-7.62-4.5-16.04-4.5-25.28Z"/>
</svg>